<svg xmlns="http://www.w3.org/2000/svg" viewBox="0 0 24 24" id="gmail"><path fill="#303c42" d="M22 3H2C.897 3 0 3.897 0 5v14c0 1.103.897 2 2 2h20c1.103 0 2-.897 2-2V5c0-1.103-.897-2-2-2z"></path><path fill="#f2f2f2" d="M19.979 4 12 9.879 4.021 4z"></path><path fill="#e53935" d="M1 19V5c0-.551.448-1 1-1h.336l9.367 6.902a.503.503 0 0 0 .594 0L21.664 4H22c.552 0 1 .449 1 1v.748l-11 8.13-8.203-6.063A.498.498 0 0 0 3 8.217V20H2c-.552 0-1-.449-1-1z"></path><path fill="#fff" d="m19.3 4.5.679-.5H4.021l.679.5zM22.5 4.5a.98.98 0 0 1 .408.092A.999.999 0 0 0 22 4h-.336l-.679.5H22.5zm-21 15v-14c0-.551.448-1 1-1h.514L2.336 4H2c-.552 0-1 .449-1 1v14c0 .405.245.751.592.908A.98.98 0 0 1 1.5 19.5z" opacity=".2"></path><path fill="#f2f2f2" d="M20 9.208V20H4V9.208l7.703 5.693a.498.498 0 0 0 .594 0L20 9.208z"></path><path fill="#e53935" d="M22 20h-1V8.469l2-1.478V19c0 .551-.448 1-1 1z"></path><linearGradient id="a" x1="16.505" x2="24.409" y1="13.9" y2="5.996" gradientTransform="matrix(1 0 0 -1 0 24)" gradientUnits="userSpaceOnUse"><stop offset="0" stop-opacity=".1"></stop><stop offset="1" stop-opacity="0"></stop></linearGradient><path fill="url(#a)" d="M21 8.469V20h1c.552 0 1-.449 1-1V6.991l-2 1.478zm-9.297 6.433L16.801 20H20V9.208l-7.703 5.694a.498.498 0 0 1-.594 0z"></path><linearGradient id="b" x1="-.708" x2="24.708" y1="17.926" y2="6.074" gradientTransform="matrix(1 0 0 -1 0 24)" gradientUnits="userSpaceOnUse"><stop offset="0" stop-color="#fff" stop-opacity=".2"></stop><stop offset="1" stop-color="#fff" stop-opacity="0"></stop></linearGradient><path fill="url(#b)" d="M22 3H2C.897 3 0 3.897 0 5v14c0 1.103.897 2 2 2h20c1.103 0 2-.897 2-2V5c0-1.103-.897-2-2-2z"></path></svg>